<?xml version="1.0" standalone="no"?>
<!DOCTYPE svg PUBLIC "-//W3C//DTD SVG 20010904//EN"
 "http://www.w3.org/TR/2001/REC-SVG-20010904/DTD/svg10.dtd">
<svg version="1.0" xmlns="http://www.w3.org/2000/svg"
 width="512.000000pt" height="512.000000pt" viewBox="0 0 512.000000 512.000000"
 preserveAspectRatio="xMidYMid meet">

<g transform="translate(0.000000,512.000000) scale(0.100000,-0.100000)"
fill="#000000" stroke="none">
<path d="M2236 5094 c-845 -108 -1588 -641 -1966 -1409 -178 -361 -260 -717
-260 -1125 0 -408 82 -764 260 -1125 380 -774 1126 -1305 1980 -1410 161 -20
459 -20 620 0 854 105 1600 636 1980 1410 178 361 260 717 260 1125 0 408 -82
764 -260 1125 -380 774 -1126 1305 -1980 1410 -154 19 -482 18 -634 -1z m574
-464 c460 -57 883 -262 1213 -588 335 -329 549 -764 607 -1232 13 -109 13
-391 0 -500 -48 -388 -207 -760 -453 -1065 -335 -414 -833 -689 -1367 -755
-109 -13 -391 -13 -500 0 -460 57 -883 262 -1213 588 -335 329 -549 764 -607
1232 -13 109 -13 391 0 500 48 383 205 755 445 1055 331 413 834 696 1361 764
99 12 415 13 514 1z"/>
<path d="M2575 3657 c-68 -23 -101 -44 -145 -94 -62 -71 -817 -1366 -822
-1412 -10 -78 36 -153 115 -187 38 -17 80 -19 465 -22 l422 -3 0 -112 c1 -320
32 -380 201 -380 107 0 162 28 199 98 23 46 25 60 28 221 l4 171 77 6 c116 9
177 41 212 110 41 80 20 182 -47 234 -49 37 -100 52 -176 53 l-68 0 0 483 c0
269 -5 513 -10 552 -19 127 -84 224 -180 268 -56 26 -214 34 -275 14z m45
-887 l0 -430 -226 0 c-132 0 -224 4 -222 9 13 38 435 851 441 851 4 0 7 -193
7 -430z"/>
</g>
</svg>
