<?xml version="1.0" standalone="no"?>
<!DOCTYPE svg PUBLIC "-//W3C//DTD SVG 20010904//EN"
 "http://www.w3.org/TR/2001/REC-SVG-20010904/DTD/svg10.dtd">
<svg version="1.0" xmlns="http://www.w3.org/2000/svg"
 width="512.000000pt" height="512.000000pt" viewBox="0 0 512.000000 512.000000"
 preserveAspectRatio="xMidYMid meet">

<g transform="translate(0.000000,512.000000) scale(0.100000,-0.100000)"
fill="#000000" stroke="none">
<path d="M2236 5094 c-845 -108 -1588 -641 -1966 -1409 -178 -361 -260 -717
-260 -1125 0 -408 82 -764 260 -1125 380 -774 1126 -1305 1980 -1410 161 -20
459 -20 620 0 854 105 1600 636 1980 1410 178 361 260 717 260 1125 0 408 -82
764 -260 1125 -380 774 -1126 1305 -1980 1410 -154 19 -482 18 -634 -1z m574
-464 c460 -57 883 -262 1213 -588 335 -329 549 -764 607 -1232 13 -109 13
-391 0 -500 -48 -388 -207 -760 -453 -1065 -335 -414 -833 -689 -1367 -755
-109 -13 -391 -13 -500 0 -460 57 -883 262 -1213 588 -335 329 -549 764 -607
1232 -13 109 -13 391 0 500 48 383 205 755 445 1055 331 413 834 696 1361 764
99 12 415 13 514 1z"/>
<path d="M2515 3664 c-166 -35 -303 -110 -407 -223 -129 -139 -154 -302 -62
-409 42 -50 81 -66 145 -60 58 6 96 37 159 128 53 78 120 137 172 150 62 17
168 8 212 -19 123 -76 119 -302 -6 -367 -18 -9 -73 -29 -122 -45 -50 -16 -105
-37 -122 -48 -46 -28 -69 -83 -68 -162 1 -125 46 -163 241 -202 170 -35 221
-76 243 -195 35 -195 -87 -351 -276 -352 -141 0 -201 40 -309 205 -76 118
-109 145 -174 145 -70 0 -159 -57 -192 -123 -53 -103 10 -286 145 -422 134
-135 290 -204 484 -213 134 -6 226 8 331 49 252 100 424 323 439 571 6 109 -9
192 -53 283 -59 123 -132 198 -281 292 -18 11 -18 12 6 29 48 33 117 113 148
172 43 81 63 162 64 264 1 146 -54 272 -166 384 -117 117 -266 175 -446 173
-47 -1 -94 -3 -105 -5z"/>
</g>
</svg>
