<?xml version="1.0" standalone="no"?>
<!DOCTYPE svg PUBLIC "-//W3C//DTD SVG 20010904//EN"
 "http://www.w3.org/TR/2001/REC-SVG-20010904/DTD/svg10.dtd">
<svg version="1.0" xmlns="http://www.w3.org/2000/svg"
 width="512.000000pt" height="512.000000pt" viewBox="0 0 512.000000 512.000000"
 preserveAspectRatio="xMidYMid meet">

<g transform="translate(0.000000,512.000000) scale(0.100000,-0.100000)"
fill="#000000" stroke="none">
<path d="M2236 5094 c-845 -108 -1588 -641 -1966 -1409 -178 -361 -260 -717
-260 -1125 0 -408 82 -764 260 -1125 380 -774 1126 -1305 1980 -1410 161 -20
459 -20 620 0 854 105 1600 636 1980 1410 178 361 260 717 260 1125 0 408 -82
764 -260 1125 -380 774 -1126 1305 -1980 1410 -154 19 -482 18 -634 -1z m574
-464 c460 -57 883 -262 1213 -588 335 -329 549 -764 607 -1232 13 -109 13
-391 0 -500 -48 -388 -207 -760 -453 -1065 -335 -414 -833 -689 -1367 -755
-109 -13 -391 -13 -500 0 -460 57 -883 262 -1213 588 -335 329 -549 764 -607
1232 -13 109 -13 391 0 500 48 383 205 755 445 1055 331 413 834 696 1361 764
99 12 415 13 514 1z"/>
<path d="M2670 3648 c-57 -29 -309 -279 -413 -410 -264 -335 -437 -666 -482
-922 -13 -78 -6 -229 14 -309 34 -130 92 -229 196 -332 151 -152 297 -213 531
-222 270 -11 470 67 641 250 82 89 153 219 178 331 101 438 -245 863 -677 832
-48 -4 -105 -13 -127 -21 -22 -8 -43 -10 -45 -6 -7 11 80 115 249 294 179 190
241 266 250 307 9 42 -34 130 -83 168 -86 67 -152 79 -232 40z m23 -1161 c62
-26 130 -102 153 -170 23 -67 23 -177 0 -244 -20 -60 -83 -136 -135 -163 -87
-44 -214 -44 -298 -1 -43 21 -103 83 -126 128 -29 55 -40 146 -28 219 7 37 19
80 27 96 24 46 84 108 125 129 79 40 196 42 282 6z"/>
</g>
</svg>
