<?xml version="1.0" standalone="no"?>
<!DOCTYPE svg PUBLIC "-//W3C//DTD SVG 20010904//EN"
 "http://www.w3.org/TR/2001/REC-SVG-20010904/DTD/svg10.dtd">
<svg version="1.0" xmlns="http://www.w3.org/2000/svg"
 width="512.000000pt" height="512.000000pt" viewBox="0 0 512.000000 512.000000"
 preserveAspectRatio="xMidYMid meet">

<g transform="translate(0.000000,512.000000) scale(0.100000,-0.100000)"
fill="#000000" stroke="none">
<path d="M2236 5094 c-845 -108 -1588 -641 -1966 -1409 -178 -361 -260 -717
-260 -1125 0 -408 82 -764 260 -1125 380 -774 1126 -1305 1980 -1410 161 -20
459 -20 620 0 854 105 1600 636 1980 1410 178 361 260 717 260 1125 0 408 -82
764 -260 1125 -380 774 -1126 1305 -1980 1410 -154 19 -482 18 -634 -1z m574
-464 c460 -57 883 -262 1213 -588 335 -329 549 -764 607 -1232 13 -109 13
-391 0 -500 -48 -388 -207 -760 -453 -1065 -335 -414 -833 -689 -1367 -755
-109 -13 -391 -13 -500 0 -460 57 -883 262 -1213 588 -335 329 -549 764 -607
1232 -13 109 -13 391 0 500 48 383 205 755 445 1055 331 413 834 696 1361 764
99 12 415 13 514 1z"/>
<path d="M2265 3675 c-5 -2 -22 -6 -37 -9 -125 -28 -182 -247 -96 -372 37 -53
85 -74 188 -81 l90 -6 0 -776 c0 -527 4 -789 11 -815 33 -119 150 -190 271
-165 68 15 125 60 154 122 l24 52 0 940 c0 616 -4 953 -10 977 -13 45 -51 93
-94 116 -26 14 -65 17 -261 19 -126 1 -234 1 -240 -2z"/>
</g>
</svg>
