<?xml version="1.0" standalone="no"?>
<!DOCTYPE svg PUBLIC "-//W3C//DTD SVG 20010904//EN"
 "http://www.w3.org/TR/2001/REC-SVG-20010904/DTD/svg10.dtd">
<svg version="1.0" xmlns="http://www.w3.org/2000/svg"
 width="512.000000pt" height="512.000000pt" viewBox="0 0 512.000000 512.000000"
 preserveAspectRatio="xMidYMid meet">

<g transform="translate(0.000000,512.000000) scale(0.100000,-0.100000)"
fill="#000000" stroke="none">
<path d="M2236 5094 c-845 -108 -1588 -641 -1966 -1409 -178 -361 -260 -717
-260 -1125 0 -408 82 -764 260 -1125 380 -774 1126 -1305 1980 -1410 161 -20
459 -20 620 0 854 105 1600 636 1980 1410 178 361 260 717 260 1125 0 408 -82
764 -260 1125 -380 774 -1126 1305 -1980 1410 -154 19 -482 18 -634 -1z m574
-464 c460 -57 883 -262 1213 -588 335 -329 549 -764 607 -1232 13 -109 13
-391 0 -500 -48 -388 -207 -760 -453 -1065 -335 -414 -833 -689 -1367 -755
-109 -13 -391 -13 -500 0 -460 57 -883 262 -1213 588 -335 329 -549 764 -607
1232 -13 109 -13 391 0 500 48 383 205 755 445 1055 331 413 834 696 1361 764
99 12 415 13 514 1z"/>
<path d="M2440 3664 c-14 -3 -58 -14 -98 -25 -313 -84 -563 -377 -562 -660 1
-142 88 -229 232 -229 120 0 156 40 248 281 62 164 132 220 270 221 119 1 202
-59 237 -169 13 -43 14 -63 5 -117 -28 -171 -144 -323 -683 -901 -324 -347
-326 -349 -317 -447 8 -75 63 -134 147 -158 22 -6 268 -10 646 -10 l610 0 50
24 c28 13 60 34 72 47 78 85 68 229 -20 306 -66 57 -105 63 -450 63 l-308 0
21 28 c12 15 83 95 159 177 426 467 551 681 551 945 0 175 -57 317 -176 436
-77 78 -186 140 -299 170 -59 16 -284 28 -335 18z"/>
</g>
</svg>
