<?xml version="1.0" encoding="iso-8859-1"?>
<!-- Generator: Adobe Illustrator 19.0.0, SVG Export Plug-In . SVG Version: 6.00 Build 0)  -->
<svg version="1.1" id="Layer_1" xmlns="http://www.w3.org/2000/svg" xmlns:xlink="http://www.w3.org/1999/xlink" x="0px" y="0px"
	 viewBox="0 0 487.42 487.42" style="enable-background:new 0 0 487.42 487.42;" xml:space="preserve">
<g>
	<path d="M258.65,381.267v-79.452c25.849-6.678,45-30.195,45-58.101s-19.151-51.424-45-58.101v-79.399h91.279L243.441,0
		L137.503,106.213h91.146v79.399c-25.849,6.678-45,30.195-45,58.101s19.151,51.424,45,58.101v79.433l-91.169-0.057L243.434,487.42
		l106.505-106.096L258.65,381.267z M243.496,42.427l33.875,33.787h-67.574L243.496,42.427z M213.65,243.713
		c0-16.542,13.458-30,30-30s30,13.458,30,30s-13.458,30-30,30S213.65,260.255,213.65,243.713z M209.82,411.236l67.541,0.042
		l-33.858,33.729L209.82,411.236z"/>
</g>
<g>
</g>
<g>
</g>
<g>
</g>
<g>
</g>
<g>
</g>
<g>
</g>
<g>
</g>
<g>
</g>
<g>
</g>
<g>
</g>
<g>
</g>
<g>
</g>
<g>
</g>
<g>
</g>
<g>
</g>
</svg>
