<?xml version="1.0" encoding="iso-8859-1"?>
<!-- Generator: Adobe Illustrator 19.0.0, SVG Export Plug-In . SVG Version: 6.00 Build 0)  -->
<svg version="1.1" id="Layer_1" xmlns="http://www.w3.org/2000/svg" xmlns:xlink="http://www.w3.org/1999/xlink" x="0px" y="0px"
	 viewBox="0 0 470.773 470.773" style="enable-background:new 0 0 600.773 600.773;" xml:space="preserve">
<g>
	<path d="M397.743,156.286c-7.435,0-14.493,1.63-20.841,4.553C372.586,137.628,352.185,120,327.743,120
		c-7.68,0-14.958,1.745-21.467,4.852c-5.392-21.789-25.101-37.995-48.533-37.995c-7.109,0-13.871,1.501-20,4.187V50
		c0-27.57-22.43-50-50-50c-27.57,0-50,22.43-50,50v196.337l-19.399-41.602c-11.652-24.988-41.46-35.836-66.447-24.184
		c-24.986,11.651-35.836,41.459-24.185,66.446l104.349,223.776l279.966-0.006l4.141-8.31c1.289-2.587,31.575-64.054,31.575-124.431
		V206.286C447.743,178.715,425.313,156.286,397.743,156.286z M417.743,338.026c0,41.223-16.901,84.903-24.64,102.741l-241.93,0.006
		L54.902,234.319c-4.661-9.995-0.321-21.918,9.674-26.579c9.995-4.661,21.918-0.322,26.579,9.673l51.015,109.403l25.574,0.1V50
		c0-11.028,8.972-20,20-20s20,8.972,20,20v156.286h30v-69.429c0-11.028,8.972-20,20-20c11.028,0,20,8.972,20,20v69.429h30V170
		c0-11.028,8.972-20,20-20s20,8.972,20,20v36.286h30c0-11.028,8.972-20,20-20s20,8.972,20,20V338.026z"/>
</g>
<g>
</g>
<g>
</g>
<g>
</g>
<g>
</g>
<g>
</g>
<g>
</g>
<g>
</g>
<g>
</g>
<g>
</g>
<g>
</g>
<g>
</g>
<g>
</g>
<g>
</g>
<g>
</g>
<g>
</g>
</svg>
