<?xml version="1.0" standalone="no"?>
<!DOCTYPE svg PUBLIC "-//W3C//DTD SVG 20010904//EN"
 "http://www.w3.org/TR/2001/REC-SVG-20010904/DTD/svg10.dtd">
<svg version="1.0" xmlns="http://www.w3.org/2000/svg"
 width="512.000000pt" height="512.000000pt" viewBox="0 0 512.000000 512.000000"
 preserveAspectRatio="xMidYMid meet">

<g transform="translate(0.000000,512.000000) scale(0.100000,-0.100000)"
fill="#000000" stroke="none">
<path d="M2236 5094 c-845 -108 -1588 -641 -1966 -1409 -178 -361 -260 -717
-260 -1125 0 -408 82 -764 260 -1125 380 -774 1126 -1305 1980 -1410 161 -20
459 -20 620 0 854 105 1600 636 1980 1410 178 361 260 717 260 1125 0 408 -82
764 -260 1125 -380 774 -1126 1305 -1980 1410 -154 19 -482 18 -634 -1z m574
-464 c460 -57 883 -262 1213 -588 335 -329 549 -764 607 -1232 13 -109 13
-391 0 -500 -48 -388 -207 -760 -453 -1065 -335 -414 -833 -689 -1367 -755
-109 -13 -391 -13 -500 0 -460 57 -883 262 -1213 588 -335 329 -549 764 -607
1232 -13 109 -13 391 0 500 48 383 205 755 445 1055 331 413 834 696 1361 764
99 12 415 13 514 1z"/>
<path d="M2235 3671 c-91 -16 -143 -69 -170 -176 -20 -83 -117 -855 -110 -882
9 -38 63 -91 111 -109 66 -25 140 -15 259 36 78 33 115 43 175 47 217 15 350
-106 350 -316 0 -169 -78 -309 -206 -372 -57 -28 -74 -32 -147 -31 -100 0
-169 24 -319 110 -159 91 -197 99 -283 58 -88 -41 -132 -114 -123 -207 15
-155 246 -306 556 -365 117 -22 322 -15 442 16 235 61 403 197 500 405 45 96
66 177 80 308 16 161 -4 279 -73 412 -87 168 -262 295 -457 332 -90 16 -251
13 -339 -7 -24 -6 -46 -8 -49 -6 -2 3 6 78 20 168 l24 163 349 5 c334 5 352 6
390 26 22 12 48 30 57 41 51 56 67 183 32 244 -30 50 -90 88 -159 99 -66 11
-846 11 -910 1z"/>
</g>
</svg>
