<?xml version="1.0" encoding="utf-8"?>

<svg version="1.1" id="Icons" xmlns="http://www.w3.org/2000/svg" xmlns:xlink="http://www.w3.org/1999/xlink" x="0px" y="0px"
	 viewBox="0 0 32 32" style="enable-background:new 0 0 32 32;" xml:space="preserve">
<g>
	<path d="M26.6,6.8l-5.7,5.7c0.7,1,1.1,2.2,1.1,3.5c0,1.3-0.4,2.5-1.1,3.5l5.7,5.7c2.1-2.5,3.4-5.7,3.4-9.2S28.7,9.3,26.6,6.8z"/>
	<path d="M16,10c1.3,0,2.5,0.4,3.5,1.1l5.7-5.7C22.7,3.3,19.5,2,16,2S9.3,3.3,6.8,5.4l5.7,5.7C13.5,10.4,14.7,10,16,10z"/>
	<path d="M10,16c0-1.3,0.4-2.5,1.1-3.5L5.4,6.8C3.3,9.3,2,12.5,2,16s1.3,6.7,3.4,9.2l5.7-5.7C10.4,18.5,10,17.3,10,16z"/>
	<path d="M16,22c-1.3,0-2.5-0.4-3.5-1.1l-5.7,5.7C9.3,28.7,12.5,30,16,30s6.7-1.3,9.2-3.4l-5.7-5.7C18.5,21.6,17.3,22,16,22z"/>
</g>
</svg>
